# xmcd CD database file
#
# Track frame offsets:
#	150
#	27216
#	59303
#	84150
#	115861
#	144037
#	175293
#	207427
#	229363
#	267767
#
# Disc length: 3964 seconds
#
# Revision: 0
# Processed by: cddbd v1.5.2PL0 Copyright (c) Steve Scherf et al.
# Submitted via: CDex 1.51
#
DISCID=7f0f7a0a
DTITLE=Scott Hamilton Quartet Plus Two - Our Delight!
DYEAR=2005
DGENRE=Jazz
TTITLE0=Get Happy
TTITLE1=Four
TTITLE2=Lonely Moments
TTITLE3=Serenade To Sweden
TTITLE4=Our Delight
TTITLE5=Change Partners
TTITLE6=Tee Pee Time
TTITLE7=Isfahan
TTITLE8=Taking A Chance On Love
TTITLE9=In Walked Bud
EXTD=YEAR: 2005
EXTT0=
EXTT1=
EXTT2=
EXTT3=
EXTT4=
EXTT5=
EXTT6=
EXTT7=
EXTT8=
EXTT9=
PLAYORDER=
